<mxfile host="65bd71144e">
    <diagram id="lt_eMKCOZn5I_9tcTs8J" name="Page-1">
        <mxGraphModel dx="1118" dy="542" grid="1" gridSize="10" guides="1" tooltips="1" connect="1" arrows="1" fold="1" page="1" pageScale="1" pageWidth="850" pageHeight="1100" math="0" shadow="0">
            <root>
                <mxCell id="0"/>
                <mxCell id="1" parent="0"/>
                <mxCell id="34" value="" style="rounded=0;whiteSpace=wrap;html=1;rotation=90;" parent="1" vertex="1">
                    <mxGeometry x="140" y="190" width="440" height="140" as="geometry"/>
                </mxCell>
                <mxCell id="2" value="" style="whiteSpace=wrap;html=1;aspect=fixed;" parent="1" vertex="1">
                    <mxGeometry x="20" y="160" width="80" height="80" as="geometry"/>
                </mxCell>
                <mxCell id="3" value="User" style="text;html=1;strokeColor=none;fillColor=none;align=center;verticalAlign=middle;whiteSpace=wrap;rounded=0;" parent="1" vertex="1">
                    <mxGeometry x="40" y="190" width="40" height="20" as="geometry"/>
                </mxCell>
                <mxCell id="5" value="" style="whiteSpace=wrap;html=1;aspect=fixed;" parent="1" vertex="1">
                    <mxGeometry x="160" y="160" width="80" height="80" as="geometry"/>
                </mxCell>
                <mxCell id="6" value="subdomain" style="text;html=1;strokeColor=none;fillColor=none;align=center;verticalAlign=middle;whiteSpace=wrap;rounded=0;" parent="1" vertex="1">
                    <mxGeometry x="180" y="190" width="40" height="20" as="geometry"/>
                </mxCell>
                <mxCell id="10" value="" style="group" parent="1" vertex="1" connectable="0">
                    <mxGeometry x="330" y="140" width="60" height="120" as="geometry"/>
                </mxCell>
                <mxCell id="8" value="" style="rounded=0;whiteSpace=wrap;html=1;rotation=90;" parent="10" vertex="1">
                    <mxGeometry x="-30" y="30" width="120" height="60" as="geometry"/>
                </mxCell>
                <mxCell id="9" value="Login" style="text;html=1;strokeColor=none;fillColor=none;align=center;verticalAlign=middle;whiteSpace=wrap;rounded=0;" parent="10" vertex="1">
                    <mxGeometry x="10" y="50" width="40" height="20" as="geometry"/>
                </mxCell>
                <mxCell id="26" style="edgeStyle=orthogonalEdgeStyle;rounded=0;orthogonalLoop=1;jettySize=auto;html=1;" parent="1" source="14" target="19" edge="1">
                    <mxGeometry relative="1" as="geometry"/>
                </mxCell>
                <mxCell id="14" value="" style="whiteSpace=wrap;html=1;aspect=fixed;" parent="1" vertex="1">
                    <mxGeometry x="560" y="20" width="80" height="80" as="geometry"/>
                </mxCell>
                <mxCell id="15" value="Keycloak" style="text;html=1;strokeColor=none;fillColor=none;align=center;verticalAlign=middle;whiteSpace=wrap;rounded=0;" parent="1" vertex="1">
                    <mxGeometry x="580" y="50" width="40" height="20" as="geometry"/>
                </mxCell>
                <mxCell id="18" value="Login Screen of tobicloud" style="text;html=1;strokeColor=none;fillColor=none;align=center;verticalAlign=middle;whiteSpace=wrap;rounded=0;" parent="1" vertex="1">
                    <mxGeometry x="280" y="120" width="150" height="20" as="geometry"/>
                </mxCell>
                <mxCell id="23" style="edgeStyle=orthogonalEdgeStyle;rounded=0;orthogonalLoop=1;jettySize=auto;html=1;" parent="1" source="19" edge="1">
                    <mxGeometry relative="1" as="geometry">
                        <mxPoint x="620" y="110" as="targetPoint"/>
                    </mxGeometry>
                </mxCell>
                <mxCell id="19" value="" style="rhombus;whiteSpace=wrap;html=1;" parent="1" vertex="1">
                    <mxGeometry x="580" y="250" width="80" height="80" as="geometry"/>
                </mxCell>
                <mxCell id="20" value="Tobi Auth Service" style="text;html=1;strokeColor=none;fillColor=none;align=center;verticalAlign=middle;whiteSpace=wrap;rounded=0;" parent="1" vertex="1">
                    <mxGeometry x="600" y="275" width="40" height="30" as="geometry"/>
                </mxCell>
                <mxCell id="21" style="edgeStyle=orthogonalEdgeStyle;rounded=0;orthogonalLoop=1;jettySize=auto;html=1;" parent="1" source="8" target="19" edge="1">
                    <mxGeometry relative="1" as="geometry"/>
                </mxCell>
                <mxCell id="45" style="edgeStyle=orthogonalEdgeStyle;rounded=0;orthogonalLoop=1;jettySize=auto;html=1;" parent="1" source="27" target="19" edge="1">
                    <mxGeometry relative="1" as="geometry"/>
                </mxCell>
                <mxCell id="27" value="" style="whiteSpace=wrap;html=1;aspect=fixed;" parent="1" vertex="1">
                    <mxGeometry x="700" y="400" width="80" height="80" as="geometry"/>
                </mxCell>
                <mxCell id="28" value="" style="whiteSpace=wrap;html=1;aspect=fixed;" parent="1" vertex="1">
                    <mxGeometry x="590" y="400" width="80" height="80" as="geometry"/>
                </mxCell>
                <mxCell id="46" style="edgeStyle=orthogonalEdgeStyle;rounded=0;orthogonalLoop=1;jettySize=auto;html=1;" parent="1" source="29" edge="1">
                    <mxGeometry relative="1" as="geometry">
                        <mxPoint x="620" y="370" as="targetPoint"/>
                    </mxGeometry>
                </mxCell>
                <mxCell id="29" value="" style="whiteSpace=wrap;html=1;aspect=fixed;" parent="1" vertex="1">
                    <mxGeometry x="810" y="400" width="80" height="80" as="geometry"/>
                </mxCell>
                <mxCell id="44" style="edgeStyle=orthogonalEdgeStyle;rounded=0;orthogonalLoop=1;jettySize=auto;html=1;entryX=0.5;entryY=1;entryDx=0;entryDy=0;" parent="1" source="30" target="19" edge="1">
                    <mxGeometry relative="1" as="geometry"/>
                </mxCell>
                <mxCell id="30" value="MS1" style="text;html=1;strokeColor=none;fillColor=none;align=center;verticalAlign=middle;whiteSpace=wrap;rounded=0;" parent="1" vertex="1">
                    <mxGeometry x="610" y="430" width="40" height="20" as="geometry"/>
                </mxCell>
                <mxCell id="31" value="MS2" style="text;html=1;strokeColor=none;fillColor=none;align=center;verticalAlign=middle;whiteSpace=wrap;rounded=0;" parent="1" vertex="1">
                    <mxGeometry x="720" y="430" width="40" height="20" as="geometry"/>
                </mxCell>
                <mxCell id="32" value="MS3" style="text;html=1;strokeColor=none;fillColor=none;align=center;verticalAlign=middle;whiteSpace=wrap;rounded=0;" parent="1" vertex="1">
                    <mxGeometry x="830" y="430" width="40" height="20" as="geometry"/>
                </mxCell>
                <mxCell id="35" value="Frontend" style="text;html=1;strokeColor=none;fillColor=none;align=center;verticalAlign=middle;whiteSpace=wrap;rounded=0;" parent="1" vertex="1">
                    <mxGeometry x="320" y="20" width="80" height="20" as="geometry"/>
                </mxCell>
                <mxCell id="36" value="" style="rounded=0;whiteSpace=wrap;html=1;" parent="1" vertex="1">
                    <mxGeometry x="320" y="275" width="80" height="40" as="geometry"/>
                </mxCell>
                <mxCell id="37" value="" style="rounded=0;whiteSpace=wrap;html=1;" parent="1" vertex="1">
                    <mxGeometry x="320" y="340" width="80" height="40" as="geometry"/>
                </mxCell>
                <mxCell id="38" value="" style="rounded=0;whiteSpace=wrap;html=1;" parent="1" vertex="1">
                    <mxGeometry x="320" y="410" width="80" height="40" as="geometry"/>
                </mxCell>
                <mxCell id="43" style="edgeStyle=orthogonalEdgeStyle;rounded=0;orthogonalLoop=1;jettySize=auto;html=1;entryX=0;entryY=0.625;entryDx=0;entryDy=0;entryPerimeter=0;" parent="1" source="39" target="28" edge="1">
                    <mxGeometry relative="1" as="geometry"/>
                </mxCell>
                <mxCell id="39" value="Compenent, Service" style="text;html=1;strokeColor=none;fillColor=none;align=center;verticalAlign=middle;whiteSpace=wrap;rounded=0;" parent="1" vertex="1">
                    <mxGeometry x="330" y="280" width="60" height="30" as="geometry"/>
                </mxCell>
                <mxCell id="41" value="Compenent, Service" style="text;html=1;strokeColor=none;fillColor=none;align=center;verticalAlign=middle;whiteSpace=wrap;rounded=0;" parent="1" vertex="1">
                    <mxGeometry x="330" y="340" width="60" height="30" as="geometry"/>
                </mxCell>
                <mxCell id="42" value="Compenent, Service" style="text;html=1;strokeColor=none;fillColor=none;align=center;verticalAlign=middle;whiteSpace=wrap;rounded=0;" parent="1" vertex="1">
                    <mxGeometry x="330" y="415" width="60" height="30" as="geometry"/>
                </mxCell>
            </root>
        </mxGraphModel>
    </diagram>
    <diagram id="ZG6JR8ZqGf4jesJ8mybH" name="Architecture">
        <mxGraphModel dx="1118" dy="542" grid="1" gridSize="10" guides="1" tooltips="1" connect="1" arrows="1" fold="1" page="1" pageScale="1" pageWidth="850" pageHeight="1100" math="0" shadow="0">
            <root>
                <mxCell id="SlY5Tpo6K12N7hW5BVGT-0"/>
                <mxCell id="SlY5Tpo6K12N7hW5BVGT-1" parent="SlY5Tpo6K12N7hW5BVGT-0"/>
                <mxCell id="SlY5Tpo6K12N7hW5BVGT-2" value="" style="rounded=0;whiteSpace=wrap;html=1;rotation=90;" parent="SlY5Tpo6K12N7hW5BVGT-1" vertex="1">
                    <mxGeometry x="212.5" y="197.5" width="185" height="90" as="geometry"/>
                </mxCell>
                <mxCell id="SlY5Tpo6K12N7hW5BVGT-3" value="" style="rounded=0;whiteSpace=wrap;html=1;rotation=90;" parent="SlY5Tpo6K12N7hW5BVGT-1" vertex="1">
                    <mxGeometry x="232.5" y="383.75" width="145" height="87.5" as="geometry"/>
                </mxCell>
                <mxCell id="SlY5Tpo6K12N7hW5BVGT-4" value="Gateway" style="text;html=1;strokeColor=none;fillColor=none;align=center;verticalAlign=middle;whiteSpace=wrap;rounded=0;" parent="SlY5Tpo6K12N7hW5BVGT-1" vertex="1">
                    <mxGeometry x="270" y="232.5" width="70" height="20" as="geometry"/>
                </mxCell>
                <mxCell id="SlY5Tpo6K12N7hW5BVGT-5" value="Notificaction" style="text;html=1;strokeColor=none;fillColor=none;align=center;verticalAlign=middle;whiteSpace=wrap;rounded=0;" parent="SlY5Tpo6K12N7hW5BVGT-1" vertex="1">
                    <mxGeometry x="270" y="417.5" width="70" height="20" as="geometry"/>
                </mxCell>
                <mxCell id="SlY5Tpo6K12N7hW5BVGT-7" value="" style="rounded=0;whiteSpace=wrap;html=1;rotation=90;" parent="SlY5Tpo6K12N7hW5BVGT-1" vertex="1">
                    <mxGeometry x="260" y="227.5" width="530" height="165" as="geometry"/>
                </mxCell>
                <mxCell id="SlY5Tpo6K12N7hW5BVGT-8" value="" style="rounded=0;whiteSpace=wrap;html=1;" parent="SlY5Tpo6K12N7hW5BVGT-1" vertex="1">
                    <mxGeometry x="30" y="280" width="120" height="60" as="geometry"/>
                </mxCell>
                <mxCell id="SlY5Tpo6K12N7hW5BVGT-9" value="" style="rounded=0;whiteSpace=wrap;html=1;" parent="SlY5Tpo6K12N7hW5BVGT-1" vertex="1">
                    <mxGeometry x="477.5" y="70" width="95" height="60" as="geometry"/>
                </mxCell>
                <mxCell id="SlY5Tpo6K12N7hW5BVGT-10" value="keycloak" style="text;html=1;strokeColor=none;fillColor=none;align=center;verticalAlign=middle;whiteSpace=wrap;rounded=0;" parent="SlY5Tpo6K12N7hW5BVGT-1" vertex="1">
                    <mxGeometry x="505" y="90" width="40" height="20" as="geometry"/>
                </mxCell>
                <mxCell id="SlY5Tpo6K12N7hW5BVGT-11" value="User" style="text;html=1;strokeColor=none;fillColor=none;align=center;verticalAlign=middle;whiteSpace=wrap;rounded=0;" parent="SlY5Tpo6K12N7hW5BVGT-1" vertex="1">
                    <mxGeometry x="70" y="300" width="40" height="20" as="geometry"/>
                </mxCell>
                <mxCell id="SlY5Tpo6K12N7hW5BVGT-12" value="" style="rounded=0;whiteSpace=wrap;html=1;" parent="SlY5Tpo6K12N7hW5BVGT-1" vertex="1">
                    <mxGeometry x="477.5" y="150" width="102.5" height="60" as="geometry"/>
                </mxCell>
                <mxCell id="SlY5Tpo6K12N7hW5BVGT-13" value="" style="rounded=0;whiteSpace=wrap;html=1;" parent="SlY5Tpo6K12N7hW5BVGT-1" vertex="1">
                    <mxGeometry x="477.5" y="240" width="102.5" height="60" as="geometry"/>
                </mxCell>
                <mxCell id="SlY5Tpo6K12N7hW5BVGT-14" value="" style="rounded=0;whiteSpace=wrap;html=1;" parent="SlY5Tpo6K12N7hW5BVGT-1" vertex="1">
                    <mxGeometry x="477.5" y="330" width="102.5" height="60" as="geometry"/>
                </mxCell>
                <mxCell id="SlY5Tpo6K12N7hW5BVGT-15" value="" style="rounded=0;whiteSpace=wrap;html=1;" parent="SlY5Tpo6K12N7hW5BVGT-1" vertex="1">
                    <mxGeometry x="477.5" y="417.5" width="102.5" height="60" as="geometry"/>
                </mxCell>
                <mxCell id="SlY5Tpo6K12N7hW5BVGT-16" value="" style="rounded=0;whiteSpace=wrap;html=1;" parent="SlY5Tpo6K12N7hW5BVGT-1" vertex="1">
                    <mxGeometry x="477.5" y="500" width="102.5" height="60" as="geometry"/>
                </mxCell>
                <mxCell id="SlY5Tpo6K12N7hW5BVGT-17" value="User" style="text;html=1;strokeColor=none;fillColor=none;align=center;verticalAlign=middle;whiteSpace=wrap;rounded=0;" parent="SlY5Tpo6K12N7hW5BVGT-1" vertex="1">
                    <mxGeometry x="508.75" y="170" width="40" height="20" as="geometry"/>
                </mxCell>
            </root>
        </mxGraphModel>
    </diagram>
    <diagram id="HfKof3jh8XubpKU55Hoj" name="User Roles">
        <mxGraphModel dx="1118" dy="542" grid="1" gridSize="10" guides="1" tooltips="1" connect="1" arrows="1" fold="1" page="1" pageScale="1" pageWidth="850" pageHeight="1100" math="0" shadow="0">
            <root>
                <mxCell id="LvA37SCuhoZKtPF6LZEn-0"/>
                <mxCell id="LvA37SCuhoZKtPF6LZEn-1" parent="LvA37SCuhoZKtPF6LZEn-0"/>
                <mxCell id="LvA37SCuhoZKtPF6LZEn-2" value="User Roles" style="text;html=1;strokeColor=none;fillColor=none;align=center;verticalAlign=middle;whiteSpace=wrap;rounded=0;" parent="LvA37SCuhoZKtPF6LZEn-1" vertex="1">
                    <mxGeometry x="160" y="40" width="80" height="20" as="geometry"/>
                </mxCell>
                <mxCell id="LvA37SCuhoZKtPF6LZEn-3" value="Supervisor" style="text;html=1;strokeColor=none;fillColor=none;align=center;verticalAlign=middle;whiteSpace=wrap;rounded=0;" parent="LvA37SCuhoZKtPF6LZEn-1" vertex="1">
                    <mxGeometry x="180" y="280" width="40" height="20" as="geometry"/>
                </mxCell>
                <mxCell id="LvA37SCuhoZKtPF6LZEn-4" value="Manager" style="text;html=1;strokeColor=none;fillColor=none;align=center;verticalAlign=middle;whiteSpace=wrap;rounded=0;" parent="LvA37SCuhoZKtPF6LZEn-1" vertex="1">
                    <mxGeometry x="180" y="240" width="40" height="20" as="geometry"/>
                </mxCell>
                <mxCell id="LvA37SCuhoZKtPF6LZEn-5" value="Driver" style="text;html=1;strokeColor=none;fillColor=none;align=center;verticalAlign=middle;whiteSpace=wrap;rounded=0;" parent="LvA37SCuhoZKtPF6LZEn-1" vertex="1">
                    <mxGeometry x="180" y="200" width="40" height="20" as="geometry"/>
                </mxCell>
                <mxCell id="LvA37SCuhoZKtPF6LZEn-6" value="Dispatcher" style="text;html=1;strokeColor=none;fillColor=none;align=center;verticalAlign=middle;whiteSpace=wrap;rounded=0;" parent="LvA37SCuhoZKtPF6LZEn-1" vertex="1">
                    <mxGeometry x="170" y="150" width="70" height="20" as="geometry"/>
                </mxCell>
                <mxCell id="LvA37SCuhoZKtPF6LZEn-7" value="Tenant Admin" style="text;html=1;strokeColor=none;fillColor=none;align=center;verticalAlign=middle;whiteSpace=wrap;rounded=0;" parent="LvA37SCuhoZKtPF6LZEn-1" vertex="1">
                    <mxGeometry x="160" y="100" width="90" height="20" as="geometry"/>
                </mxCell>
                <mxCell id="LvA37SCuhoZKtPF6LZEn-10" value="Invoices" style="text;html=1;strokeColor=none;fillColor=none;align=center;verticalAlign=middle;whiteSpace=wrap;rounded=0;" parent="LvA37SCuhoZKtPF6LZEn-1" vertex="1">
                    <mxGeometry x="500" y="240" width="40" height="20" as="geometry"/>
                </mxCell>
                <mxCell id="LvA37SCuhoZKtPF6LZEn-11" value="Reports" style="text;html=1;strokeColor=none;fillColor=none;align=center;verticalAlign=middle;whiteSpace=wrap;rounded=0;" parent="LvA37SCuhoZKtPF6LZEn-1" vertex="1">
                    <mxGeometry x="500" y="200" width="40" height="20" as="geometry"/>
                </mxCell>
                <mxCell id="LvA37SCuhoZKtPF6LZEn-12" value="Configurations" style="text;html=1;strokeColor=none;fillColor=none;align=center;verticalAlign=middle;whiteSpace=wrap;rounded=0;" parent="LvA37SCuhoZKtPF6LZEn-1" vertex="1">
                    <mxGeometry x="500" y="150" width="40" height="20" as="geometry"/>
                </mxCell>
                <mxCell id="LvA37SCuhoZKtPF6LZEn-13" value="Operations" style="text;html=1;strokeColor=none;fillColor=none;align=center;verticalAlign=middle;whiteSpace=wrap;rounded=0;" parent="LvA37SCuhoZKtPF6LZEn-1" vertex="1">
                    <mxGeometry x="500" y="100" width="40" height="20" as="geometry"/>
                </mxCell>
                <mxCell id="LvA37SCuhoZKtPF6LZEn-14" value="Client Roles" style="text;html=1;strokeColor=none;fillColor=none;align=center;verticalAlign=middle;whiteSpace=wrap;rounded=0;" parent="LvA37SCuhoZKtPF6LZEn-1" vertex="1">
                    <mxGeometry x="480" y="40" width="80" height="20" as="geometry"/>
                </mxCell>
                <mxCell id="Iwtb0jVBbmTHkoI79ahC-0" value="&lt;h1&gt;Client Roles&lt;/h1&gt;&lt;p&gt;Clients are basically the MS in the system. So each MS might be having their own roles. These roles are not dependent on the routes defined in the system&lt;/p&gt;" style="text;html=1;strokeColor=none;fillColor=none;spacing=5;spacingTop=-20;whiteSpace=wrap;overflow=hidden;rounded=0;" parent="LvA37SCuhoZKtPF6LZEn-1" vertex="1">
                    <mxGeometry x="580" y="30" width="190" height="120" as="geometry"/>
                </mxCell>
            </root>
        </mxGraphModel>
    </diagram>
</mxfile>